HIERARCHY
ROOT joint_0
{
	OFFSET 0.000000 0.000000 0.000000
	CHANNELS 6 Xposition Yposition Zposition Zrotation Yrotation Xrotation 
	JOINT joint_1
	{
		OFFSET 6.590088 -1.122192 114.019043
		CHANNELS 3 Zrotation Yrotation Xrotation
		JOINT joint_2
		{
			OFFSET -5.956055 -0.820435 104.151001
			CHANNELS 3 Zrotation Yrotation Xrotation
			JOINT joint_3
			{
				OFFSET -7.343506 -1.103027 103.942993
				CHANNELS 3 Zrotation Yrotation Xrotation
				JOINT joint_4
				{
					OFFSET 3.109131 -2.857056 147.715942
					CHANNELS 3 Zrotation Yrotation Xrotation
					JOINT joint_5
					{
						OFFSET 28.592285 -2.852295 87.703979
						CHANNELS 3 Zrotation Yrotation Xrotation
						End Site
						{
							OFFSET 0.000000 0.000000 0.000000
						}
					}
				}
				JOINT joint_6
				{
					OFFSET -0.332520 -33.687378 82.401978
					CHANNELS 3 Zrotation Yrotation Xrotation
					JOINT joint_7
					{
						OFFSET -7.397461 -168.719177 -22.750977
						CHANNELS 3 Zrotation Yrotation Xrotation
						JOINT joint_8
						{
							OFFSET 17.065918 -24.903137 -272.721069
							CHANNELS 3 Zrotation Yrotation Xrotation
							JOINT joint_9
							{
								OFFSET 33.311279 -37.031616 -278.192993
								CHANNELS 3 Zrotation Yrotation Xrotation
								End Site
								{
									OFFSET 0.000000 0.000000 0.000000
								}
							}
						}
					}
				}
				JOINT joint_10
				{
					OFFSET 3.914307 30.461670 83.552979
					CHANNELS 3 Zrotation Yrotation Xrotation
					JOINT joint_11
					{
						OFFSET 15.543701 166.845459 -30.963013
						CHANNELS 3 Zrotation Yrotation Xrotation
						JOINT joint_12
						{
							OFFSET 35.734863 35.017700 -269.786011
							CHANNELS 3 Zrotation Yrotation Xrotation
							JOINT joint_13
							{
								OFFSET 70.506592 13.977783 -273.320007
								CHANNELS 3 Zrotation Yrotation Xrotation
								End Site
								{
									OFFSET 0.000000 0.000000 0.000000
								}
							}
						}
					}
				}
			}
		}
	}
	JOINT joint_14
	{
		OFFSET -0.314697 -95.093994 -116.004028
		CHANNELS 3 Zrotation Yrotation Xrotation
		JOINT joint_15
		{
			OFFSET -22.490723 2.017883 -455.510986
			CHANNELS 3 Zrotation Yrotation Xrotation
			JOINT joint_16
			{
				OFFSET -46.427490 7.144104 -496.360985
				CHANNELS 3 Zrotation Yrotation Xrotation
				JOINT joint_17
				{
					OFFSET 209.055420 -37.122803 -85.191002
					CHANNELS 3 Zrotation Yrotation Xrotation
					End Site
					{
						OFFSET 0.000000 0.000000 0.000000
					}
				}
			}
		}
	}
	JOINT joint_18
	{
		OFFSET 5.652832 94.642578 -116.244019
		CHANNELS 3 Zrotation Yrotation Xrotation
		JOINT joint_19
		{
			OFFSET -12.379883 -7.332642 -455.843994
			CHANNELS 3 Zrotation Yrotation Xrotation
			JOINT joint_20
			{
				OFFSET -45.227051 -8.172241 -496.457985
				CHANNELS 3 Zrotation Yrotation Xrotation
				JOINT joint_21
				{
					OFFSET 210.522949 -11.530396 -88.809004
					CHANNELS 3 Zrotation Yrotation Xrotation
					End Site
					{
						OFFSET 0.000000 0.000000 0.000000
					}
				}
			}
		}
	}
}
MOTION
Frames: 15
Frame Time: 0.016667
-2480.171631 904.281189 1182.909058 4.161815 2.207537 1.477529 0.467043 -1.271722 -0.620518 0.525405 0.209576 0.178341 0.499650 -0.219331 -0.114144 0.045993 -0.694305 -0.199198 0.000000 0.000000 0.000000 -1.636123 6.668818 0.693787 0.209399 6.431009 1.257232 2.038408 -12.973754 4.791031 0.000000 0.000000 0.000000 3.675634 3.420174 2.421691 -0.061667 3.040561 -0.988894 -2.299723 -11.046965 -5.292389 0.000000 0.000000 0.000000 -2.591383 1.572287 -1.936848 -2.604335 1.416473 -1.714400 -2.694064 -0.295380 -1.140742 0.000000 0.000000 0.000000 2.833468 -0.163659 0.298434 2.804137 -2.215295 2.585735 2.910333 2.037285 1.325806 0.000000 0.000000 0.000000 
-2473.212158 905.112183 1185.538940 5.061098 1.657722 1.396952 0.348313 -0.122604 -0.210580 0.364359 0.046617 0.051966 0.356754 -0.029765 -0.042127 0.056761 -0.601155 -0.217442 0.000000 0.000000 0.000000 -2.239538 7.622289 0.229779 0.191379 7.332844 0.692428 2.796274 -20.815149 5.759797 0.000000 0.000000 0.000000 4.152042 4.241366 2.918575 -0.181901 3.692286 -0.091156 -3.797610 -18.586999 -8.065699 0.000000 0.000000 0.000000 -2.753997 0.863543 -2.249897 -2.791579 4.596325 -1.176825 -2.871956 -0.545023 -1.254355 0.000000 0.000000 0.000000 2.614799 -0.359420 0.617835 2.568524 -0.316149 2.344104 2.675132 1.892598 1.220201 0.000000 0.000000 0.000000 
-2468.992188 906.108459 1190.043945 6.444805 1.198822 1.347956 -0.031634 1.225076 0.156611 -0.060898 -0.186089 -0.046797 -0.050533 0.233688 0.035291 0.091794 -0.300567 -0.296479 0.000000 0.000000 0.000000 -2.750526 7.772151 -0.285820 0.075458 7.486811 -0.259000 3.523774 -30.607141 6.225889 0.000000 0.000000 0.000000 4.896886 4.223965 3.509377 -0.287127 3.516499 0.063185 -5.116617 -27.152146 -9.891192 0.000000 0.000000 0.000000 -3.034935 -1.184044 -2.995106 -3.120438 9.749149 -0.072937 -3.148199 -0.232384 -1.303354 0.000000 0.000000 0.000000 2.219612 -1.800761 0.984257 2.131037 3.164955 1.978529 2.295283 2.039845 1.069508 0.000000 0.000000 0.000000 
-2466.180908 907.253296 1195.642944 7.905906 0.874979 1.374935 -0.508149 2.547552 0.387852 -0.586924 -0.404295 -0.062004 -0.566543 0.520050 0.104356 0.136034 0.153516 -0.403022 0.000000 0.000000 0.000000 -3.287729 7.147616 -0.503769 -0.093777 6.947675 -1.879530 4.189581 -41.149848 6.432437 0.000000 0.000000 0.000000 5.723081 3.585849 3.918170 -0.240904 2.700663 0.006259 -6.249225 -36.213844 -11.160489 0.000000 0.000000 0.000000 -3.277006 -4.176178 -4.208009 -3.388008 16.058173 1.484455 -3.273702 1.034177 -1.112319 0.000000 0.000000 0.000000 1.688181 -4.020246 1.250665 1.585658 7.509941 1.571721 1.935516 2.718407 0.954966 0.000000 0.000000 0.000000 
-2462.891113 908.337708 1200.560059 8.597663 0.798070 1.450704 -0.765321 3.475787 0.514715 -0.915611 -0.562376 -0.081437 -0.892260 0.707849 0.131880 0.159121 0.614080 -0.455143 0.000000 0.000000 0.000000 -3.681604 5.979576 -0.843753 -0.229942 5.895459 -3.651699 4.772951 -50.540650 6.789638 0.000000 0.000000 0.000000 6.138699 2.553905 4.214649 0.200304 1.565164 0.196468 -7.016079 -44.680708 -12.320004 0.000000 0.000000 0.000000 -3.218579 -7.482614 -5.571927 -3.254417 22.067715 3.097058 -2.900104 2.880589 -0.611692 0.000000 0.000000 0.000000 1.151964 -6.073541 1.480627 1.115359 11.217379 1.134173 1.709422 3.746025 0.915430 0.000000 0.000000 0.000000 
-2458.615479 909.393188 1204.369019 7.990427 1.234209 1.610507 -0.627031 3.578779 0.435016 -0.868810 -0.568289 -0.125698 -0.849672 0.747312 0.109241 0.138986 1.137439 -0.379924 0.000000 0.000000 0.000000 -3.918341 4.284838 -1.241821 -0.504808 4.388977 -5.886719 5.282576 -59.570711 7.400807 0.000000 0.000000 0.000000 5.818378 1.153707 4.148622 1.407178 0.152621 1.238015 -7.289983 -53.238895 -13.573334 0.000000 0.000000 0.000000 -2.754760 -11.550403 -6.983989 -2.550106 28.129643 4.685006 -1.910971 5.098105 0.200222 0.000000 0.000000 0.000000 0.681928 -7.891490 1.815578 0.819009 13.844795 0.481195 1.560229 4.895930 0.915304 0.000000 0.000000 0.000000 
-2453.862549 910.388245 1207.494995 6.650040 1.957939 1.934541 -0.303792 3.226579 -0.058865 -0.620884 -0.509171 -0.026467 -0.624412 0.717810 0.045172 0.104853 1.699296 -0.259431 0.000000 0.000000 0.000000 -4.071294 1.721053 -1.192555 -1.057180 2.150843 -8.746293 5.687126 -67.742229 8.041446 0.000000 0.000000 0.000000 5.062310 -0.827368 3.564885 3.275556 -1.818366 2.902039 -7.103628 -61.348551 -14.731742 0.000000 0.000000 0.000000 -2.052470 -16.130063 -8.473146 -1.380500 34.002244 6.155409 -0.401960 7.896994 1.316948 0.000000 0.000000 0.000000 0.214967 -9.591115 2.126808 0.625387 15.895771 -0.346442 1.409411 6.116381 0.918539 0.000000 0.000000 0.000000 
-2448.271973 911.014465 1209.443970 5.300755 2.423307 2.313276 -0.016219 3.093666 -0.739599 -0.394407 -0.521855 0.175418 -0.437934 0.686269 -0.040258 0.095024 2.048749 -0.202459 0.000000 0.000000 0.000000 -4.026574 -1.264937 -1.015592 -1.709030 -0.435336 -11.089736 6.008485 -73.452894 8.804055 0.000000 0.000000 0.000000 4.309439 -3.118629 3.027459 5.260910 -4.019829 4.356233 -6.667904 -67.580136 -15.902232 0.000000 0.000000 0.000000 -1.190463 -19.815418 -9.751445 0.022288 37.998043 7.271530 1.513229 10.062662 2.456088 0.000000 0.000000 0.000000 -0.156988 -10.675241 2.280702 0.491702 17.529184 -1.009464 1.272459 6.970164 0.906053 0.000000 0.000000 0.000000 
-2441.714111 911.076843 1209.905029 3.927224 2.424674 2.677633 0.254279 3.323198 -1.429055 -0.204652 -0.552271 0.374757 -0.299682 0.664224 -0.147342 0.121705 2.037388 -0.232637 0.000000 0.000000 0.000000 -3.616855 -4.194077 -1.049153 -2.394845 -2.836451 -12.395357 6.250526 -77.508194 9.870603 0.000000 0.000000 0.000000 3.586122 -5.483180 2.891918 7.303707 -6.022482 5.412224 -6.007365 -72.500093 -17.382073 0.000000 0.000000 0.000000 0.066751 -22.159663 -10.777465 1.684976 39.801907 8.163001 4.026278 10.340355 3.445354 0.000000 0.000000 0.000000 -0.280102 -10.925241 2.225744 0.465622 18.839428 -1.332149 1.231266 7.184624 0.895648 0.000000 0.000000 0.000000 
-2434.317627 910.771545 1209.188965 2.369270 2.293491 3.017018 0.554499 3.521330 -2.097548 0.021192 -0.525873 0.542580 -0.130323 0.634735 -0.268733 0.161939 1.818166 -0.270349 0.000000 0.000000 0.000000 -3.009977 -7.236007 -1.041253 -3.137038 -5.055724 -13.233157 6.368698 -80.736107 11.289226 0.000000 0.000000 0.000000 2.813969 -8.035102 2.793319 9.483815 -7.911379 6.480496 -5.041328 -76.707590 -19.251713 0.000000 0.000000 0.000000 1.584566 -23.840034 -11.578156 3.468326 40.093080 8.817321 6.708146 9.340396 4.252904 0.000000 0.000000 0.000000 -0.185560 -10.711963 2.049856 0.557936 19.844627 -1.435920 1.280238 6.898390 0.893538 0.000000 0.000000 0.000000 
-2426.111328 910.369263 1207.728027 1.028271 2.315752 3.226886 0.760739 3.473624 -2.537165 0.212369 -0.465674 0.633094 0.020176 0.594579 -0.359020 0.197469 1.590341 -0.269068 0.000000 0.000000 0.000000 -2.566140 -10.256149 -1.012022 -3.754834 -7.060321 -13.702011 6.405528 -82.482158 13.017149 0.000000 0.000000 0.000000 2.266408 -10.611241 2.653549 11.364110 -9.645188 7.270727 -4.037854 -79.555927 -21.370213 0.000000 0.000000 0.000000 2.865037 -25.180484 -12.013924 4.887977 38.916072 8.955649 8.564366 8.277845 4.759122 0.000000 0.000000 0.000000 0.005947 -10.473565 1.885403 0.694500 20.630095 -1.384239 1.374648 6.276870 0.892167 0.000000 0.000000 0.000000 
-2417.049561 910.109009 1205.625000 0.137498 2.615792 3.216461 0.773675 3.113599 -2.602218 0.316490 -0.407858 0.633805 0.118125 0.533749 -0.385123 0.224029 1.416373 -0.230184 0.000000 0.000000 0.000000 -2.399509 -12.945799 -1.283088 -4.248646 -8.728180 -13.583397 6.391181 -82.638086 15.304693 0.000000 0.000000 0.000000 2.047299 -12.940529 2.680150 12.797026 -10.929922 7.382315 -3.205463 -81.124721 -23.792895 0.000000 0.000000 0.000000 3.649391 -26.123316 -11.972659 5.664601 35.715430 8.244188 9.006639 7.711943 4.855873 0.000000 0.000000 0.000000 0.270797 -10.358883 1.731920 0.850021 21.160415 -1.037866 1.533362 5.292878 0.898165 0.000000 0.000000 0.000000 
-2407.178223 909.751831 1202.777954 -0.429929 2.974045 3.122129 0.665553 2.680616 -2.530339 0.342514 -0.393639 0.618526 0.154890 0.462483 -0.377151 0.244339 1.242865 -0.169864 0.000000 0.000000 0.000000 -2.351561 -15.216682 -1.757436 -4.730624 -10.021809 -12.987875 6.289470 -82.049250 18.030865 0.000000 0.000000 0.000000 2.028830 -15.042285 2.828393 14.019940 -11.760822 7.105366 -2.438647 -82.043698 -26.617086 0.000000 0.000000 0.000000 4.173944 -26.406084 -11.650206 6.074318 30.684229 6.894003 8.664561 7.915852 4.808355 0.000000 0.000000 0.000000 0.592822 -10.141453 1.506268 1.016135 21.463508 -0.462215 1.746689 4.011131 0.910458 0.000000 0.000000 0.000000 
-2396.655762 908.855225 1199.312988 -0.871184 3.210460 3.131804 0.567101 2.305239 -2.624826 0.351536 -0.387154 0.646723 0.168916 0.402561 -0.392558 0.248333 1.097693 -0.074939 0.000000 0.000000 0.000000 -2.406288 -17.103344 -2.018372 -5.095868 -11.055191 -12.279798 6.216690 -81.138871 20.354230 0.000000 0.000000 0.000000 2.151968 -16.993667 2.835610 15.034200 -12.503170 6.936455 -1.747754 -82.220260 -29.490959 0.000000 0.000000 0.000000 4.811155 -26.186874 -11.346336 6.620224 25.199552 5.522404 8.534786 9.164632 5.025569 0.000000 0.000000 0.000000 0.873604 -9.739279 1.288796 1.158605 21.722757 -0.055639 1.930989 2.695541 0.909337 0.000000 0.000000 0.000000 
-2385.268555 907.307861 1195.208984 -1.437439 3.348757 3.231855 0.568960 1.809708 -2.847092 0.439825 -0.255215 0.660361 0.263518 0.358564 -0.459493 0.224588 0.988567 0.072714 0.000000 0.000000 0.000000 -2.677090 -18.559836 -1.945695 -5.173738 -11.867991 -11.495819 6.359249 -79.940604 21.751805 0.000000 0.000000 0.000000 2.470323 -18.742398 2.649946 15.766235 -13.272896 6.968044 -1.235165 -81.458847 -32.357993 0.000000 0.000000 0.000000 6.082833 -25.475746 -11.100398 7.868188 19.162842 4.230021 9.173301 11.607850 5.764747 0.000000 0.000000 0.000000 1.159522 -9.150576 1.181329 1.340693 21.968294 0.040065 2.122866 1.404652 0.912491 0.000000 0.000000 0.000000 
